<?xml version="1.0" encoding="UTF-8" standalone="no"?>
<!-- Created with Inkscape (http://www.inkscape.org/) -->

<svg
   xmlns:dc="http://purl.org/dc/elements/1.1/"
   xmlns:cc="http://creativecommons.org/ns#"
   xmlns:rdf="http://www.w3.org/1999/02/22-rdf-syntax-ns#"
   xmlns:svg="http://www.w3.org/2000/svg"
   xmlns="http://www.w3.org/2000/svg"
   xmlns:sodipodi="http://sodipodi.sourceforge.net/DTD/sodipodi-0.dtd"
   xmlns:inkscape="http://www.inkscape.org/namespaces/inkscape"
   width="19.755556mm"
   height="19.755556mm"
   viewBox="0 0 70.000002 70.000002"
   id="svg2"
   version="1.1"
   inkscape:version="0.91 r13725"
   sodipodi:docname="logo.svg"
   inkscape:export-filename="/home/bonnee/src/OsO.js/logo.png"
   inkscape:export-xdpi="658.28571"
   inkscape:export-ydpi="658.28571">
  <defs
     id="defs4" />
  <sodipodi:namedview
     id="base"
     pagecolor="#ffffff"
     bordercolor="#666666"
     borderopacity="1.0"
     inkscape:pageopacity="0.0"
     inkscape:pageshadow="2"
     inkscape:zoom="22.4"
     inkscape:cx="41.389586"
     inkscape:cy="35.256368"
     inkscape:document-units="px"
     inkscape:current-layer="layer1"
     showgrid="false"
     fit-margin-top="0"
     fit-margin-left="0"
     fit-margin-right="0"
     fit-margin-bottom="0"
     showguides="false"
     inkscape:window-width="1859"
     inkscape:window-height="2029"
     inkscape:window-x="44"
     inkscape:window-y="77"
     inkscape:window-maximized="0" />
  <metadata
     id="metadata7">
    <rdf:RDF>
      <cc:Work
         rdf:about="">
        <dc:format>image/svg+xml</dc:format>
        <dc:type
           rdf:resource="http://purl.org/dc/dcmitype/StillImage" />
        <dc:title></dc:title>
      </cc:Work>
    </rdf:RDF>
  </metadata>
  <g
     inkscape:label="Layer 1"
     inkscape:groupmode="layer"
     id="layer1"
     transform="translate(-318.70309,-286.24082)">
    <path
       d="M 35 0 A 35 35 0 0 0 0 35 A 35 35 0 0 0 35 70 A 35 35 0 0 0 70 35 A 35 35 0 0 0 35 0 z M 12.296875 18.265625 L 15.496094 18.265625 L 15.496094 25.375 C 17.048094 23.35318 19.168761 21.423326 21.619141 20.572266 C 30.055821 17.642073 39.963299 17.585449 48.412109 20.480469 C 50.850659 21.316049 52.968666 23.256871 54.503906 25.244141 L 54.503906 18.265625 L 57.703125 18.265625 L 57.703125 51.734375 L 54.503906 51.734375 L 54.503906 44.625 C 52.951906 46.64682 50.831239 48.576674 48.380859 49.427734 C 39.944179 52.357927 30.036701 52.414551 21.587891 49.519531 C 19.149341 48.683951 17.031334 46.743129 15.496094 44.755859 L 15.496094 51.734375 L 12.296875 51.734375 L 12.296875 18.265625 z M 36.011719 22.882812 C 32.708819 22.882813 30.226 23.278866 28.5625 24.072266 C 26.9231 24.865666 26.103516 26.055778 26.103516 27.642578 C 26.103516 28.851578 26.69367 29.804956 27.875 30.503906 C 29.05632 31.183966 31.4319 31.835594 35 32.458984 L 37.277344 32.857422 C 42.002664 33.650822 45.355121 34.773946 47.332031 36.228516 C 49.333051 37.664196 50.333984 39.675672 50.333984 42.263672 C 50.333984 42.596624 50.307691 42.91905 50.269531 43.236328 C 52.027518 41.685297 53.415616 39.623064 54.226562 37.492188 C 54.832055 35.901047 54.832799 33.974896 54.224609 32.384766 C 53.049589 29.312626 50.642218 26.382613 47.642578 25.033203 C 44.030014 23.436261 40.120393 22.981842 36.011719 22.882812 z M 19.734375 26.757812 C 17.973957 28.309327 16.585166 30.374876 15.773438 32.507812 C 15.167945 34.098953 15.167201 36.025104 15.775391 37.615234 C 16.950411 40.687374 19.553371 43.247485 22.357422 44.966797 C 25.04603 46.615325 28.355594 47.17847 31.501953 47.394531 C 34.673204 47.612302 38.237484 47.859918 40.966797 46.230469 C 42.219401 45.482642 43.498047 44.190286 43.498047 42.660156 C 43.498047 41.243366 42.883837 40.157964 41.654297 39.402344 C 40.448867 38.646724 37.784699 37.919653 33.662109 37.220703 L 31.347656 36.794922 C 27.225066 36.114852 24.248276 35.075634 22.416016 33.677734 C 20.583756 32.260954 19.666016 30.324901 19.666016 27.869141 C 19.666016 27.487537 19.690235 27.117183 19.734375 26.757812 z "
       transform="translate(318.70309,286.24082)"
       id="path3359" />
    <flowRoot
       xml:space="preserve"
       id="flowRoot3513"
       style="fill:black;stroke:none;stroke-opacity:1;stroke-width:1px;stroke-linejoin:miter;stroke-linecap:butt;fill-opacity:1;font-family:sans-serif;font-style:normal;font-weight:normal;font-size:40px;line-height:125%;letter-spacing:0px;word-spacing:0px"><flowRegion
         id="flowRegion3515"><rect
           id="rect3517"
           width="125.89026"
           height="113.38963"
           x="-175.26146"
           y="-42.379471" /></flowRegion><flowPara
         id="flowPara3519"></flowPara></flowRoot>  </g>
</svg>
