<?xml version="1.0" encoding="UTF-8" standalone="no"?>
<!-- Created with Inkscape (http://www.inkscape.org/) -->

<svg
   xmlns:dc="http://purl.org/dc/elements/1.1/"
   xmlns:cc="http://creativecommons.org/ns#"
   xmlns:rdf="http://www.w3.org/1999/02/22-rdf-syntax-ns#"
   xmlns:svg="http://www.w3.org/2000/svg"
   xmlns="http://www.w3.org/2000/svg"
   xmlns:sodipodi="http://sodipodi.sourceforge.net/DTD/sodipodi-0.dtd"
   xmlns:inkscape="http://www.inkscape.org/namespaces/inkscape"
   width="19.755556mm"
   height="19.755556mm"
   viewBox="0 0 70.000002 70.000002"
   id="svg2"
   version="1.1"
   inkscape:version="0.91 r13725"
   sodipodi:docname="logo.svg">
  <defs
     id="defs4" />
  <sodipodi:namedview
     id="base"
     pagecolor="#ffffff"
     bordercolor="#666666"
     borderopacity="1.0"
     inkscape:pageopacity="0.0"
     inkscape:pageshadow="2"
     inkscape:zoom="15.839192"
     inkscape:cx="33.573152"
     inkscape:cy="38.424993"
     inkscape:document-units="px"
     inkscape:current-layer="layer1"
     showgrid="false"
     fit-margin-top="0"
     fit-margin-left="0"
     fit-margin-right="0"
     fit-margin-bottom="0"
     showguides="false"
     inkscape:window-width="3840"
     inkscape:window-height="2127"
     inkscape:window-x="0"
     inkscape:window-y="33"
     inkscape:window-maximized="0" />
  <metadata
     id="metadata7">
    <rdf:RDF>
      <cc:Work
         rdf:about="">
        <dc:format>image/svg+xml</dc:format>
        <dc:type
           rdf:resource="http://purl.org/dc/dcmitype/StillImage" />
        <dc:title></dc:title>
      </cc:Work>
    </rdf:RDF>
  </metadata>
  <g
     inkscape:label="Layer 1"
     inkscape:groupmode="layer"
     id="layer1"
     transform="translate(-318.70309,-286.24082)">
    <circle
       id="path3359"
       cx="353.70309"
       cy="321.24081"
       r="35" />
    <path
       style="font-style:normal;font-weight:normal;font-size:63.00146866px;line-height:125%;font-family:sans-serif;letter-spacing:0px;word-spacing:0px;fill:#ffffff;fill-opacity:1;stroke:none;stroke-width:1px;stroke-linecap:butt;stroke-linejoin:miter;stroke-opacity:1"
       d="m 330.99997,304.50645 0,33.46875 3.19921,0 0,-6.97851 c 1.53524,1.98727 3.65325,3.92809 6.0918,4.76367 8.44881,2.89502 18.35629,2.83839 26.79297,-0.0918 2.45038,-0.85106 4.57105,-2.78091 6.12305,-4.80273 l 0,7.10937 3.19922,0 0,-33.46875 -3.19922,0 0,6.97852 c -1.53524,-1.98727 -3.65325,-3.92809 -6.0918,-4.76367 -8.44881,-2.89502 -18.35629,-2.83839 -26.79297,0.0918 -2.45038,0.85106 -4.57105,2.78091 -6.12305,4.80273 l 0,-7.10937 z m 35.3457,6.76758 c 2.99964,1.34941 5.40701,4.27943 6.58203,7.35157 0.60819,1.59013 0.60754,3.51628 0.002,5.10742 -1.20632,3.16978 -3.66955,6.21747 -6.76758,7.59765 -7.64312,3.40503 -17.47085,3.3097 -25.10156,-0.12304 -2.99964,-1.34941 -5.40701,-4.27943 -6.58203,-7.35157 -0.60819,-1.59013 -0.60754,-3.51628 -0.002,-5.10742 1.20632,-3.16978 3.66955,-6.21747 6.76758,-7.59765 7.64312,-3.40503 17.47085,-3.3097 25.10156,0.12304 z"
       id="text3355-5-5-9"
       inkscape:connector-curvature="0"
       sodipodi:nodetypes="ccccaaccccccaacccaaaaaaaaa" />
    <flowRoot
       xml:space="preserve"
       id="flowRoot3513"
       style="fill:black;stroke:none;stroke-opacity:1;stroke-width:1px;stroke-linejoin:miter;stroke-linecap:butt;fill-opacity:1;font-family:sans-serif;font-style:normal;font-weight:normal;font-size:40px;line-height:125%;letter-spacing:0px;word-spacing:0px"><flowRegion
         id="flowRegion3515"><rect
           id="rect3517"
           width="125.89026"
           height="113.38963"
           x="-175.26146"
           y="-42.379471" /></flowRegion><flowPara
         id="flowPara3519"></flowPara></flowRoot>    <g
       transform="matrix(1.1297061,0,0,0.88518598,-0.1446681,0.17999187)"
       style="font-style:normal;font-weight:normal;font-size:65.55861664px;line-height:125%;font-family:sans-serif;letter-spacing:0px;word-spacing:0px;fill:#ffffff;fill-opacity:1;stroke:none;stroke-width:1px;stroke-linecap:butt;stroke-linejoin:miter;stroke-opacity:1"
       id="text3551">
      <path
         d="m 319.68731,349.65513 c -1.79262,-0.42681 -3.64926,-0.64022 -5.56992,-0.64022 -2.92368,0 -5.12177,0.44816 -6.59428,1.34447 -1.45117,0.89631 -2.17675,2.24077 -2.17675,4.03339 0,1.36581 0.52285,2.44351 1.56854,3.23311 1.04569,0.76827 3.14775,1.50452 6.30618,2.20877 l 2.01669,0.44815 c 4.18278,0.89631 7.14914,2.16608 8.89907,3.80932 1.77128,1.62189 2.65692,3.89467 2.65692,6.81835 0,3.32915 -1.32312,5.96472 -3.96937,7.90673 -9.01342,8.08751 -34.01769,-7.24526 -16.99786,-2.84899 2.11273,0.55486 4.20411,0.83229 6.27416,0.83229 2.77429,0 4.90836,-0.4695 6.40221,-1.40849 1.49385,-0.96033 2.24077,-2.30479 2.24077,-4.03339 0,-1.60055 -0.54419,-2.82764 -1.63256,-3.68127 -1.06703,-0.85363 -3.42518,-1.67524 -7.07444,-2.46485 l -2.04871,-0.48016 c -3.64926,-0.76827 -6.28484,-1.94201 -7.90673,-3.52122 -1.62189,-1.60055 -2.43284,-3.78797 -2.43284,-6.56226 0,-3.37183 1.19508,-5.9754 3.58524,-7.8107 8.97149,-8.29719 29.77611,5.86152 16.45368,2.81697 z"
         style="fill:#ffffff"
         id="path3556"
         inkscape:connector-curvature="0"
         sodipodi:nodetypes="cscsccccsccscsccccscc" />
    </g>
  </g>
</svg>
